<?xml version="1.0" encoding="UTF-8" standalone="no"?>
<!-- Created with Inkscape (http://www.inkscape.org/) -->
<svg id="svg2" xmlns:rdf="http://www.w3.org/1999/02/22-rdf-syntax-ns#" xmlns="http://www.w3.org/2000/svg" height="166.88" width="910.22" version="1.1" xmlns:cc="http://creativecommons.org/ns#" xmlns:dc="http://purl.org/dc/elements/1.1/">
<metadata id="metadata7">
<rdf:RDF>
<cc:Work rdf:about="">
<dc:format>image/svg+xml</dc:format>
<dc:type rdf:resource="http://purl.org/dc/dcmitype/StillImage"/>
<dc:title/>
</cc:Work>
</rdf:RDF>
</metadata>
<g id="layer1" transform="translate(-80.5625,-323.21875)">
<path id="path3009" d="m206.21,412.7c-1.5025,6.1066-3.368,12.202-7.0824,17.238-5.8774,5.5115-12.966,9.0551-19.97,12.872-1.3265,0.72279-2.857,0.94945-4.2219,1.5893-4.3796,2.0695-9.156,2.5502-13.89,2.8899-5.471,0.28272-10.951,0.25099-16.427,0.24665-5.6784-0.75133-11.312-2.4018-16.572-4.7586-4.5841-1.7784-8.2409-5.1044-11.902-8.359-3.576-3.4245-7.0396-7.0351-10.251-10.842-3.1021-3.8654-5.5269-8.3999-7.4639-13.019-2.2482-5.128-4.1158-10.46-5.7027-15.853-1.5441-5.8699-2.3179-11.799-1.0574-17.772,1.2163-5.4264,4.2573-9.9309,7.3538-14.34,3.09-3.5669,6.1515-7.2443,9.8702-10.108,5.5065-4.3402,11.563-7.4008,17.672-10.951,3.5666-2.073-14.152,8.5041-10.638,6.335,13.591-8.3892,9.2639-6.4766,16.155-9.3403,4.8338-1.8089,9.6828-3.2606,14.771-4.0498,5.6467-0.71222,11.344-0.74623,17.023-0.76716,6.8587,0.20231,13.779,1.2621,20.527,2.6024,7.0484,1.3759,14.027,3.5801,20.427,6.9877,4.4562,2.3279,8.8832,4.6633,13.344,6.9824,5.0225,2.4537,10.186,4.6872,14.961,7.6469,4.5208,2.6737,8.63,6.0817,12.568,9.6133,4.8872,3.5715,9.5769,7.3774,14.359,11.093,4.3904,3.1112,8.5914,6.4666,12.829,9.7947,3.2315,2.9814,6.7036,5.6923,10.189,8.3593,4.9128,3.3388,9.6328,6.9836,14.483,10.425,5.2533,4.2002,10.791,7.8547,16.89,10.539,7.5736,3.5513,15.192,7.011,22.905,10.221,9.5034,4.4327,19.363,7.9075,29.034,11.914,9.2634,3.7761,18.47,7.6867,28.022,10.609,8.16,3.2378,16.5,5.5935,24.968,7.7384,8.7701,2.1598,17.754,3.0089,26.65,4.4141,10.478,1.659,20.933,3.4921,31.408,5.1957,11.047,1.755,22.201,2.4162,33.356,2.766,9.3767,0.21354,18.756,0.19305,28.135,0.16435,6.7638,0.13551,13.411-1.4519,20.109-2.2471,5.486-1.7068,11.226-2.1802,16.757-3.6036,6.2216-1.7343,12.659-2.3318,19.067-2.6811,8.171-1.0528,16.278-2.7994,24.257-4.9105,7.1971-1.502,13.533-5.4549,20.459-7.8237,5.6128-2.3561,11.324-4.4468,16.922-6.8331,5.5411-2.3389,11.074-4.6806,16.676-6.8674,5.7041-1.861,11.289-4.1594,16.669-6.8804-3.2917,1.9228-6.5445,3.9202-9.8751,5.7683-0.81537,0.45246,1.5218-1.097,2.3225-1.5773,8.9207-5.3512,14.922-9.1871,24.045-12.04,6.5223-2.5795,12.893-5.5651,19.378-8.2587,6.8284-2.7994,13.788-5.1357,20.63-7.9083,6.3682-1.6326,12.134-4.8584,18.251-7.2107,6.4982-2.8947,13.118-5.3883,20.03-6.9418,7.8821-1.5113,15.706-3.0289,23.695-3.8089,8.1258-0.68158,16.286-0.7067,24.433-0.76557,6.2862-0.0302,12.572-0.0156,18.859-0.007,5.7032-0.26978,11.374,0.63266,16.846,2.2788,6.4042,1.8374,12.694,4.1039,18.978,6.3504,5.6079,2.6409,11.432,4.828,16.956,7.6451,4.4655,2.868,9.4566,4.3952,14.226,6.5168,4.3347,1.7863,7.9707,4.8836,12.23,6.8544,4.3416,2.5341,8.754,4.8298,12.646,8.0905,4.9429,4.3463,10.868,6.8673,16.715,9.5425,5.7925,2.4489,11.847,4.3238,17.465,7.1996,0.70442,0.34624,1.4088,0.69249,2.1132,1.0387,0,0-12.041,8.3283-12.041,8.3283-0.7022-0.34955-1.4043-0.69908-2.1065-1.0486-5.648-2.7356-11.578-4.7844-17.345-7.2209-5.9712-2.7014-11.963-5.3841-17-9.8063-3.8611-3.1049-8.2044-5.3516-12.469-7.7873-4.1781-2.0745-7.8743-5.0567-12.201-6.8042-4.8389-2.0217-9.7108-3.8596-14.25-6.5996-5.5196-2.7067-11.21-5.0548-16.832-7.5242-6.2566-2.2645-12.544-4.4853-18.947-6.2504-5.4467-1.4402-10.997-2.254-16.629-1.9558-6.2639-0.0156-12.528-0.0423-18.792-0.0278-8.1147,0.0455-16.242,0.10381-24.331,0.85613-7.9559,0.84626-15.765,2.4353-23.618,3.9813-6.8628,1.6968-13.43,4.3276-19.942,7.1382-6.0487,2.4762-11.918,5.3769-18.204,7.1859-6.848,2.7791-13.865,5.0143-20.653,7.9505-6.4662,2.7501-12.86,5.7105-19.435,8.1572-3.7328,1.2854-2.6564,0.85526-6.1777,2.2901-0.93059,0.37917-3.61,1.7446-2.7847,1.1563,15.651-11.155,11.545-7.0878,7.3465-4.475-4.9066,3.0535-9.8532,6.0364-14.78,9.0546-5.4545,2.5949-11.038,4.8748-16.744,6.7955-5.5765,2.242-11.123,4.5465-16.662,6.8844-5.6469,2.2712-11.277,4.5795-16.955,6.7654-6.8404,2.5256-13.263,6.2705-20.464,7.6623-8.068,1.997-16.203,3.8867-24.465,4.7351-6.3871,0.44341-12.768,1.1544-18.967,2.9095-5.601,1.2146-11.265,2.1144-16.842,3.4705-6.6884,0.84566-13.352,2.3013-20.121,2.0406-9.3716-0.007-18.745,0.0205-28.114-0.24139-11.169-0.40834-22.328-1.1818-33.384-2.9655-10.503-1.6922-20.994-3.4626-31.501-5.1187-8.9282-1.3871-17.948-2.253-26.729-4.5135-8.5037-2.1051-16.801-4.6949-25.023-7.8015-9.5184-3.0587-18.742-6.9455-27.993-10.779-9.7084-3.965-19.588-7.4491-29.122-11.864-7.723-3.2614-15.396-6.6535-23.004-10.198-6.126-2.8308-11.713-6.5506-17.052-10.774-4.849-3.4969-9.6729-7.0218-14.576-10.431-3.4609-2.7128-6.992-5.3451-10.201-8.3745-4.191-3.3804-8.4375-6.6555-12.786-9.8118-4.766-3.7833-9.55-7.5004-14.396-11.173-3.9197-3.4301-7.9974-6.7361-12.446-9.3807-4.8011-2.8628-9.9199-5.103-14.926-7.54-4.4856-2.2514-8.8426-4.7279-13.307-7.0228-6.3492-3.2444-13.189-5.3982-20.145-6.6712-6.7362-1.1937-13.581-2.3366-20.42-2.3403-5.6475,0.0723-11.319,0.11676-16.919,0.97155-5.0165,0.91699-9.8422,2.4507-14.59,4.3796-0.63428,0.31364-2.5029,1.3212-1.9028,0.94095,3.4859-2.2089,14.111-8.5389,10.568-6.4319-46.438,27.616,10.857-6.8746-7.0648,4.5601-3.9596,2.479-6.7882,6.3188-10.082,9.6382-3.0782,4.263-6.2799,8.5573-7.6201,13.812-1.5307,5.6924-0.71768,11.379,0.7059,17.046,1.5435,5.3443,3.4195,10.616,5.6582,15.681,1.8508,4.4859,4.1984,8.8922,7.2423,12.603,3.1868,3.7383,6.5518,7.3545,10.137,10.67,3.5416,3.1823,7.1938,6.2546,11.636,7.9735,5.1887,2.1592,10.647,3.8772,16.241,4.2804,5.4586-0.001,10.924,0.0224,16.373-0.35269,4.6879-0.43812,9.3374-1.1625,13.64-3.289,5.388-2.1661,11.423-6.1844-6.1693,4.8183-6.2598,3.9151,11.892-7.1744,5.7441-4.036,4.077-4.5502,5.7868-10.575,7.3652-16.478,0,0,12.99-6.6442,12.99-6.6442z" stroke-dashoffset="0" stroke="#800000" stroke-dasharray="5.9832435, 0.99720725" stroke-miterlimit="4" stroke-width="0.99720728" fill="#F00"/>
</g>
</svg>
